<svg xmlns="http://www.w3.org/2000/svg" xmlns:xlink="http://www.w3.org/1999/xlink" viewBox="0 0 1170 723.1"><defs><style>.cls-1{fill:url(#linear-gradient);}.cls-2{fill:url(#linear-gradient-2);}.cls-3{fill:url(#linear-gradient-3);}.cls-4{fill:#e6e6e6;}.cls-19,.cls-5{fill:#fa615c;}.cls-6{fill:#fdbe41;}.cls-7{fill:#35cd4b;}.cls-16,.cls-8{fill:#fff;}.cls-9{fill:#ccc;}.cls-10{fill:#999;}.cls-11{fill:url(#linear-gradient-4);}.cls-12{fill:url(#linear-gradient-5);}.cls-13{fill:red;}.cls-14{fill:url(#linear-gradient-6);}.cls-15,.cls-17,.cls-18,.cls-20{fill:none;}.cls-15,.cls-18{stroke:#fff;}.cls-15,.cls-17,.cls-18,.cls-19,.cls-20{stroke-miterlimit:10;}.cls-16{opacity:0.6;}.cls-17{stroke:#000;}.cls-18{stroke-width:0.25px;}.cls-19{stroke:#fa615c;}.cls-19,.cls-20{stroke-width:9px;}.cls-20{stroke:#c69c6d;}.cls-21{fill:#f0db4f;}.cls-22{fill:#323330;}</style><linearGradient id="linear-gradient" x1="-47.77" y1="591.86" x2="1217.77" y2="131.24" gradientUnits="userSpaceOnUse"><stop offset="0" stop-color="#333"/><stop offset="1"/></linearGradient><linearGradient id="linear-gradient-2" x1="170.19" y1="137.35" x2="176.21" y2="135.15" xlink:href="#linear-gradient"/><linearGradient id="linear-gradient-3" x1="995.09" y1="137.57" x2="999.51" y2="135.96" xlink:href="#linear-gradient"/><linearGradient id="linear-gradient-4" x1="993.78" y1="587.95" x2="999.8" y2="585.76" xlink:href="#linear-gradient"/><linearGradient id="linear-gradient-5" x1="170.48" y1="587.15" x2="174.9" y2="585.54" xlink:href="#linear-gradient"/><linearGradient id="linear-gradient-6" x1="148.32" y1="305.15" x2="1021.03" y2="459.04" gradientUnits="userSpaceOnUse"><stop offset="0" stop-color="#55bdff"/><stop offset="1" stop-color="#6af0ff"/></linearGradient></defs><title>Asset 2</title><g id="Layer_2" data-name="Layer 2"><g id="Layer_4" data-name="Layer 4"><rect class="cls-1" width="1170" height="723.1"/><path class="cls-2" d="M176,134.55a5,5,0,0,0-5,5v-5Z"/><path class="cls-3" d="M999,134.55v5a5,5,0,0,0-5-5Z"/><path class="cls-4" d="M999,139.55v37H171v-37a5,5,0,0,1,5-5H994A5,5,0,0,1,999,139.55Z"/><circle class="cls-5" cx="198" cy="155.55" r="10.5"/><circle class="cls-6" cx="229.5" cy="155.55" r="10.5"/><circle class="cls-7" cx="261" cy="155.55" r="10.5"/><rect class="cls-8" x="289" y="139.55" width="654" height="31" rx="2" ry="2"/><rect class="cls-9" x="958" y="140.05" width="31" height="31" rx="2" ry="2"/><polygon class="cls-10" points="979.89 164.72 973.56 161.84 967.26 164.8 968.04 157.88 963.27 152.81 970.09 151.41 973.45 145.31 976.88 151.36 983.72 152.67 979.02 157.81 979.89 164.72"/><path class="cls-11" d="M999,583.55v5h-5A5,5,0,0,0,999,583.55Z"/><path class="cls-12" d="M176,588.55h-5v-5A5,5,0,0,0,176,588.55Z"/><polygon class="cls-13" points="812.21 354.91 854.43 379.29 854.43 330.54 812.21 354.91"/><polygon class="cls-5" points="853.42 335.5 851.71 349.6 827.28 346.64 853.42 335.5"/><path class="cls-14" d="M171,176.55v407a5,5,0,0,0,5,5H994a5,5,0,0,0,5-5v-407ZM859.57,396.34l.78-13.79-18.57,4.39-6.37,7.73h0l-13.67-13.39,8.48-4.9-3.5-22.5,8.49,1,2-16.66-10.47-8.07,24.48-12.4,27.27,5.46-14.33,24.48h11.35l12-9.36,6.26,13.72-5.48,15.85-2.76-1.19-7,17.4,2.95,4.47Z"/><line class="cls-15" x1="830.21" y1="199.15" x2="851.24" y2="317.78"/><polyline class="cls-15" points="878.51 323.24 880.92 319.13 958 187.44"/><polyline class="cls-15" points="887.49 338.36 913.79 317.78 986.42 260.94"/><polyline class="cls-15" points="888.27 367.93 888.27 367.94 917.5 380.6 992.67 413.16"/><polyline class="cls-15" points="881.46 388.61 899.04 415.23 989 551.48"/><polyline class="cls-15" points="859.57 396.34 858.09 422.52 849.29 578.45"/><polyline class="cls-15" points="835.4 394.67 821.73 411.26 701.91 556.55"/><polyline class="cls-15" points="821.73 381.28 798.56 394.67 552.32 536.95"/><polyline class="cls-15" points="826.76 330.18 803.02 311.87 670.27 209.49"/><polygon class="cls-16" points="859.35 382.55 858.57 396.34 857.1 422.52 857.09 422.52 820.73 411.26 834.4 394.67 834.41 394.67 840.78 386.94 859.35 382.55"/><polygon class="cls-16" points="829.21 376.38 820.73 381.28 797.56 394.67 797.56 350.46 823.45 353.61 825.53 353.86 825.71 353.88 829.21 376.38"/><polygon class="cls-16" points="836.23 338.25 834.2 354.91 825.71 353.88 825.53 353.86 823.45 353.61 797.56 350.46 792.53 349.85 792.57 349.68 802.02 311.87 825.76 330.18 836.23 338.25"/><polygon class="cls-16" points="912.79 317.78 886.49 338.36 874.53 347.72 863.18 347.72 877.51 323.24 879.92 319.13 912.79 317.78"/><path class="cls-17" d="M873.81,377"/><polygon class="cls-16" points="916.5 380.6 898.04 415.23 880.46 388.61 877.51 384.14 884.51 366.74 887.27 367.93 887.27 367.94 916.5 380.6"/><polyline class="cls-18" points="888.27 367.93 888.27 367.94 881.46 388.61"/><line class="cls-18" x1="859.57" y1="396.34" x2="835.41" y2="394.67"/><line class="cls-15" x1="750.36" y1="422.52" x2="797.02" y2="441.22"/><line class="cls-15" x1="856.53" y1="450.18" x2="908.79" y2="430.01"/><line class="cls-15" x1="882.66" y1="316.16" x2="918.25" y2="314.29"/><line class="cls-15" x1="793.53" y1="304.56" x2="842.74" y2="269.84"/><line class="cls-15" x1="826.76" y1="330.18" x2="842.74" y2="269.84"/><polyline class="cls-19" points="1013.17 354.33 1041.53 382.69 1113.17 382.69 1084.82 354.33"/><polyline class="cls-19" points="1013.17 355.49 1041.53 327.14 1113.17 327.14 1084.82 355.49"/><line class="cls-20" x1="1092.32" y1="354.91" x2="854.43" y2="354.91"/><path class="cls-20" d="M1006.5,354.91"/><path class="cls-21" d="M899.21,317.29H973.3v74.09H899.21Z"/><path class="cls-22" d="M967.24,373.71c-.54-3.38-2.75-6.22-9.28-8.87-2.27-1-4.8-1.79-5.55-3.51a3.82,3.82,0,0,1-.13-2.17c.49-2,2.83-2.58,4.69-2a5.16,5.16,0,0,1,3,2.8c3.2-2.07,3.19-2.06,5.42-3.48a13.86,13.86,0,0,0-1.79-2.39c-1.92-2.15-4.54-3.25-8.73-3.17l-2.18.28a9.9,9.9,0,0,0-5.25,3.1c-3.51,4-2.51,10.94,1.76,13.81,4.2,3.16,10.38,3.87,11.17,6.82.77,3.61-2.66,4.78-6.06,4.37-2.51-.52-3.9-1.8-5.41-4.11l-5.63,3.25a12.52,12.52,0,0,0,2.52,3.43c5.37,5.44,18.8,5.18,21.21-3.06A10.19,10.19,0,0,0,967.24,373.71Zm-27.75-22.37h-6.93l0,17.92c0,3.81.2,7.3-.42,8.37-1,2.11-3.64,1.84-4.84,1.44a6,6,0,0,1-2.56-2.65,3.49,3.49,0,0,0-.39-.63l-5.63,3.45a11.13,11.13,0,0,0,4.08,4.68,13.45,13.45,0,0,0,9.9,1.22,8.74,8.74,0,0,0,5.59-4.38c1.58-2.91,1.24-6.43,1.23-10.32C939.53,364.07,939.49,357.72,939.49,351.34Z"/><line class="cls-20" x1="898.91" y1="354.91" x2="903.37" y2="354.91"/><line class="cls-20" x1="969.22" y1="354.91" x2="975.67" y2="354.91"/><path class="cls-5" d="M448.46,314.73v15.89H428.39V314.73Zm0,19.66v51.15H428.39V334.39Z"/><path class="cls-5" d="M536.52,385.54H517.06v-32q0-3.22-.93-4.5a3.81,3.81,0,0,0-3.29-1.28q-5.63,0-5.63,8.2v29.57H487.94v-32q0-6.14-4.73-6.14t-4.88,6.14v32H459V334.39h18v6.89a15.47,15.47,0,0,1,14-7.95q9.91,0,14.38,7.95,5-7.95,15.29-7.95a17.71,17.71,0,0,1,8.68,2.06,12.89,12.89,0,0,1,5.43,5.31q1.68,3.24,1.68,10Z"/><path class="cls-5" d="M568,401.69H547.94V334.39H566.4v7.24q3.87-8.3,14.43-8.3a16.75,16.75,0,0,1,14.33,7.12q5.18,7.12,5.18,19.39T595,379.36a16.55,16.55,0,0,1-14,7.24q-8.55,0-13-6.54Zm0-34.85a8.11,8.11,0,0,0,1.56,5.31,4.83,4.83,0,0,0,3.87,1.89,5,5,0,0,0,5-3.34q1.36-3.34,1.36-10.29,0-8-1.56-11.24a5,5,0,0,0-4.68-3.24,5.92,5.92,0,0,0-3.7,1.46q-1.84,1.46-1.84,4.78Z"/><path class="cls-5" d="M633.34,386.6q-12.72,0-20.22-7.92a26.16,26.16,0,0,1-7.49-18.58A25.63,25.63,0,0,1,613.45,341q7.82-7.64,20.34-7.64t20.29,7.54a25.43,25.43,0,0,1,7.67,18.91A25.79,25.79,0,0,1,654,378.93Q646.21,386.6,633.34,386.6Zm.3-12.17q4.68,0,5.71-4.85a48.64,48.64,0,0,0,1-10.13q0-7.19-1.46-10.36a5.74,5.74,0,0,0-10.31.1Q627,352.45,627,359.94q0,8.8,1.66,11.64A5.4,5.4,0,0,0,633.64,374.43Z"/><path class="cls-5" d="M688.76,385.54H669.55V334.39h16.7V345q2.87-11.52,13.33-11.52a29,29,0,0,1,2.92.2v17.85a16.51,16.51,0,0,0-3.77-.5q-10,0-10,11.11Z"/><path class="cls-5" d="M742.47,334.39v13H732.26v18.86q0,3.87,1.46,4.6a6.67,6.67,0,0,0,3,.73,23.49,23.49,0,0,0,5.73-.85V385a60.88,60.88,0,0,1-11.67,1.16q-9.25,0-13.61-4t-4.35-12.67l.05-6V347.42h-7.64v-13h7.64l.3-16.65,19.06-.3v16.95Z"/><path class="cls-5" d="M767.57,367.18v18.36H748.46V367.18Z"/><line class="cls-15" x1="826.7" y1="353.89" x2="495" y2="311.88"/></g></g></svg>